<svg xmlns="http://www.w3.org/2000/svg" width="114.891" height="309.273" viewBox="0 0 114.891 309.273"><g transform="translate(-443.814 -72.727)"><g transform="translate(128 -481)"><g transform="translate(318 645)" fill="#fff" stroke="#2d3039" stroke-width="3"><rect width="111" height="218" rx="14" stroke="none"/><rect x="1.5" y="1.5" width="108" height="215" rx="12.5" fill="none"/></g><rect width="103" height="210" rx="10" transform="translate(322 649)" fill="#2d3039"/><circle cx="3" cy="3" r="3" transform="translate(371 651)" fill="#fff"/><circle cx="8" cy="8" r="8" transform="translate(340 710)" fill="#fff"/><circle cx="8" cy="8" r="8" transform="translate(392 710)" fill="#fff"/><g transform="translate(-128 469)"><g transform="translate(468 303)" fill="none" stroke="#fff" stroke-width="4"><circle cx="33" cy="33" r="33" stroke="none"/><circle cx="33" cy="33" r="31" fill="none"/></g><rect width="70" height="46" transform="translate(466 325)" fill="#2d3039"/></g><path d="M60.765.469a.806.806,0,0,0-1.465,0c-2.028,4.41-5.624,10.087-5.624,13.174a6.357,6.357,0,0,0,12.713,0C66.389,10.556,62.793,4.88,60.765.469Zm-1,17.506A4.264,4.264,0,0,1,55.5,13.716a.848.848,0,1,1,1.7,0,2.565,2.565,0,0,0,2.562,2.562.848.848,0,0,1,0,1.7Z" transform="translate(281.611 733)" fill="#fff"/><g transform="translate(112.78 -40.012) rotate(9)"><g transform="translate(325 684)" fill="none" stroke="#fff" stroke-width="4"><circle cx="10.5" cy="10.5" r="10.5" stroke="none"/><circle cx="10.5" cy="10.5" r="8.5" fill="none"/></g><rect width="9" height="23" transform="translate(325 683)" fill="#2d3039"/><rect width="22" height="12" transform="translate(325 683)" fill="#2d3039"/></g><g transform="translate(423.664 708.138) rotate(171)"><g transform="translate(0 1)" fill="none" stroke="#fff" stroke-width="4"><ellipse cx="10.5" cy="10.5" rx="10.5" ry="10.5" stroke="none"/><ellipse cx="10.5" cy="10.5" rx="8.5" ry="8.5" fill="none"/></g><rect width="9" height="23" transform="translate(0 0)" fill="#2d3039"/><rect width="22" height="12" transform="translate(0 11)" fill="#2d3039"/></g></g><g transform="translate(443.814 72.727)"><path d="M219.77,128.069c-7.056,0-21.216-14.231-26.8-20.148a5.757,5.757,0,1,0-1.361.43l16.949,51.257h34.254V88.035s-6.858,40.034-23.041,40.034" transform="translate(-185.086 -82.498)" fill="#f6d04e"/><path d="M233.581,120.893a141.4,141.4,0,0,1-8.7-14.181,4.021,4.021,0,1,0-1.338.182c-.538,4.385-1.9,13.5-4.392,17.937,0,0,7.215,8.162,14.433-3.938" transform="translate(-189.847 -84.014)" fill="#f6d04e"/><path d="M282.889,124.831c-2.49-4.442-3.854-13.552-4.391-17.937a4,4,0,1,0-1.338-.182,141.663,141.663,0,0,1-8.7,14.181c7.215,12.1,14.428,3.938,14.428,3.938" transform="translate(-197.3 -84.014)" fill="#fee593"/><path d="M304.375,97.367a5.537,5.537,0,0,0-2.342,10.554c-5.585,5.917-19.741,20.148-26.8,20.148-16.183,0-23.042-40.034-23.042-40.034v71.573h34.258l16.945-51.257a5.536,5.536,0,1,0,.981-10.984" transform="translate(-195.026 -82.498)" fill="#fee593"/><path d="M256.832,87.135a5.541,5.541,0,1,1-5.542-5.538,5.542,5.542,0,0,1,5.542,5.538" transform="translate(-193.847 -81.598)" fill="#f6d04e"/></g></g></svg>