<svg xmlns="http://www.w3.org/2000/svg" width="92.698" height="24" viewBox="0 0 92.698 24"><g transform="translate(344.026 -788)"><path d="M-28.4,0V-2.376h-8.624V-4.532l7.458-8.4h4.07v8.448h2.948v2.112H-25.5V0ZM-33.44-4.488H-28.4v-5.764h-.22l-4.8,5.544ZM-15.664,0a5.549,5.549,0,0,1-2.442-.44,2.461,2.461,0,0,1-1.232-1.32,5.89,5.89,0,0,1-.352-2.178V-8.844a4.4,4.4,0,0,1,.946-3.113,4.082,4.082,0,0,1,3.08-1h6.622a12.317,12.317,0,0,1,2.321.165q.8.165.8.341l-.44,1.826q-.374-.066-2.211-.143t-5.335-.077h-1.122q-1.76,0-1.76,1.562v5.61A1.616,1.616,0,0,0-16.4-2.519a1.855,1.855,0,0,0,1.375.407h.9q2.112,0,3.564-.033l2.4-.055V-5.192l-1.32.022-2.882.22V-7.106H-5.28V-.924l.22.462q0,.176-.924.319A23.332,23.332,0,0,1-9.108,0ZM12.682,0H2.258A1.176,1.176,0,0,1,1.8-.088,1.117,1.117,0,0,1,1.436-.33a1.117,1.117,0,0,1-.242-.365,1.176,1.176,0,0,1-.088-.457V-12.6H3.392V-2.285h9.29ZM23.958-10.318H18.922V0H16.637V-10.318H11.592V-12.6H23.958ZM36-5.15H28.783v-2.3H36ZM37.028,0H28.783a3.665,3.665,0,0,1-1.037-.167A3.05,3.05,0,0,1,26.7-.716a3.081,3.081,0,0,1-.8-.993,3.193,3.193,0,0,1-.321-1.5v-8.244a1.154,1.154,0,0,1,.088-.448,1.169,1.169,0,0,1,.242-.369,1.084,1.084,0,0,1,.365-.246,1.176,1.176,0,0,1,.457-.088H37.028v2.285H27.869v7.11a.928.928,0,0,0,.237.686.941.941,0,0,0,.694.237h8.227Z" transform="translate(-307 807)" fill="#2d3039"/><g transform="translate(-190.664 788) rotate(90)"><g transform="translate(6.521 69.853)"><path d="M148.357,256.932a7.186,7.186,0,0,0-10.138-.013A1.4,1.4,0,0,0,140.2,258.9a4.374,4.374,0,0,1,6.171.008,1.4,1.4,0,0,0,1.986-1.973Z" transform="translate(-137.807 -254.833)" fill="#079cff"/></g><g transform="translate(0 60.665)"><g transform="translate(0 0)"><path d="M23.59,65.454A16.432,16.432,0,0,0,.41,65.443,1.4,1.4,0,0,0,2.393,67.42a13.619,13.619,0,0,1,19.213.01,1.4,1.4,0,1,0,1.984-1.975Z" transform="translate(0 -60.665)" fill="#079cff"/></g></g><g transform="translate(3.342 65.375)"><g transform="translate(0 0)"><path d="M87.534,163.61A11.692,11.692,0,0,0,71.04,163.6a1.4,1.4,0,0,0,1.982,1.978,8.879,8.879,0,0,1,12.527.009,1.4,1.4,0,1,0,1.985-1.975Z" transform="translate(-70.628 -160.2)" fill="#079cff"/></g></g></g></g></svg>