<svg xmlns="http://www.w3.org/2000/svg" width="93.671" height="27" viewBox="0 0 93.671 27"><g transform="translate(345 -787)"><text transform="translate(-307 807)" fill="#2d3039" font-size="22" font-family="Goldman-Regular, Goldman"><tspan x="-37.906" y="0">4G</tspan><tspan y="0" font-size="16" font-family="Goldman-Bold, Goldman" font-weight="700"> </tspan><tspan y="0" font-size="18" font-family="Audiowide-Regular, Audiowide">LTE</tspan></text><g transform="translate(-190.664 788) rotate(90)"><g transform="translate(6.521 69.853)"><path d="M148.357,256.932a7.186,7.186,0,0,0-10.138-.013A1.4,1.4,0,0,0,140.2,258.9a4.374,4.374,0,0,1,6.171.008,1.4,1.4,0,0,0,1.986-1.973Z" transform="translate(-137.807 -254.833)" fill="#079cff"/></g><g transform="translate(0 60.665)"><g transform="translate(0 0)"><path d="M23.59,65.454A16.432,16.432,0,0,0,.41,65.443,1.4,1.4,0,0,0,2.393,67.42a13.619,13.619,0,0,1,19.213.01,1.4,1.4,0,1,0,1.984-1.975Z" transform="translate(0 -60.665)" fill="#079cff"/></g></g><g transform="translate(3.342 65.375)"><g transform="translate(0 0)"><path d="M87.534,163.61A11.692,11.692,0,0,0,71.04,163.6a1.4,1.4,0,0,0,1.982,1.978,8.879,8.879,0,0,1,12.527.009,1.4,1.4,0,1,0,1.985-1.975Z" transform="translate(-70.628 -160.2)" fill="#079cff"/></g></g></g></g></svg>