<svg xmlns="http://www.w3.org/2000/svg" width="63.87" height="64" viewBox="0 0 63.87 64"><g transform="translate(0 0.05)"><g transform="translate(0 -0.05)"><path d="M16.176,63.863l1.177-.329a2.128,2.128,0,0,0,1.477-2.622L5.375,12.764A2.66,2.66,0,0,0,2.1,10.918l-.152.042A2.66,2.66,0,0,0,.1,14.238L13.554,62.386a2.128,2.128,0,0,0,2.622,1.477Z" transform="translate(0 0.058)" fill="#2d3039"/><path d="M62.9,31.224a50.977,50.977,0,0,1-11.726-8.067,1.048,1.048,0,0,1-.3-1.069A150.821,150.821,0,0,0,54.74,2.052C54.872.928,54.266.6,53.627,1.369c-12.541,15-34.241-2.744-47.157,10.888a4.4,4.4,0,0,1,.364.915l8.728,31.254c12.938-13.467,34.561,4.166,47.08-10.8.639-.771.76-2.182.253-2.4Z" transform="translate(0.66 -0.95)" fill="#f6d04e"/></g></g></svg>