<svg xmlns="http://www.w3.org/2000/svg" width="161" height="50" viewBox="0 0 161 50"><g transform="translate(-33 -307)"><rect width="161" height="50" transform="translate(33 307)" fill="#00529a"/><g transform="translate(49 301.981)"><g transform="translate(0 19)"><g transform="translate(17)"><path d="M13.877,13.488c1.561-.513,1.529-1.232,1.364-2.019a7.039,7.039,0,0,0-7.16-5.894A7.892,7.892,0,0,0,.093,13.813c0,4.845,3.311,8.107,8.247,8.108C12.595,21.921,15,19.757,15,18.4c0-1.229-1.332-1.583-1.631-1.591a.091.091,0,0,0-.081.048A5.143,5.143,0,0,1,8.406,19.4a5.073,5.073,0,0,1-5.317-4.748h0a9.669,9.669,0,0,1,.027-2.227A4.971,4.971,0,0,1,8.049,8a4.148,4.148,0,0,1,4.29,3.5.09.09,0,0,1-.049.1c-2.627,1.2-7.469,1.134-7.9,1.125a.038.038,0,0,0-.039.031,5.693,5.693,0,0,0,0,1.952.05.05,0,0,0,.047.04A24.84,24.84,0,0,0,13.877,13.488Zm87.262,3.647a1.667,1.667,0,0,0-1.249,1.459c0,1.486,2.241,3.295,6.592,3.295,4.027,0,6.495-1.906,6.495-4.877,0-3.36-3.345-4.071-5.748-4.586-2.532-.55-3.9-.873-3.9-2.294C103.332,8.838,104.5,8,106.71,8a5.656,5.656,0,0,1,4.569,2.186c.007.008.01.015.019.019a1.738,1.738,0,0,0,1.289-1.494c0-1.453-2.013-3.133-6.007-3.133-3.8,0-6.235,1.97-6.235,4.877,0,3.3,3.182,4.006,5.488,4.491,2.566.549,4.027.84,4.027,2.422,0,1.292-1.234,2.1-3.443,2.1a6.45,6.45,0,0,1-5.247-2.309A.042.042,0,0,0,101.139,17.135ZM92.09,5.576a7.879,7.879,0,0,0-8.118,8.14,7.876,7.876,0,0,0,8.118,8.2c4.611,0,6.689-2.843,6.689-4.264,0-1.389-1.819-1.615-1.916-1.453a4.66,4.66,0,0,1-4.709,3.036c-2.955,0-5.13-2.326-5.13-5.524a5.156,5.156,0,0,1,5.13-5.459,4.63,4.63,0,0,1,4.709,3.036c.1.162,1.916-.1,1.916-1.421C98.779,8.418,96.734,5.576,92.09,5.576ZM78.777,20.112c0,1.163.617,1.518,1.461,1.518h.325c.844,0,1.428-.356,1.429-1.518V7.353c0-1.2-.585-1.55-1.429-1.55h-.324c-.844,0-1.462.387-1.462,1.55ZM78.485,1.828A1.69,1.69,0,0,0,80.4,3.6c1.234,0,1.916-.613,1.916-1.777A1.674,1.674,0,0,0,80.433.019,1.709,1.709,0,0,0,78.485,1.828ZM61.819,20.112c0,1.162.584,1.517,1.428,1.517H63.6c.812,0,1.428-.355,1.428-1.517V11.1a4.723,4.723,0,0,1,4.385-2.713c2.273,0,3.6,1.616,3.6,4.232v7.494c0,1.162.585,1.517,1.429,1.517h.357c.812,0,1.428-.355,1.429-1.517V12.23c0-3.844-1.916-6.654-6.04-6.655A6.059,6.059,0,0,0,65,8.322c-.1-2.036-1.071-2.52-2.012-2.52-.65,0-1.169.2-1.169.45ZM51.87,19.3a5.287,5.287,0,0,1-5.228-5.589A5.231,5.231,0,0,1,51.87,8.192c3.02,0,5.2,2.358,5.2,5.588A5.224,5.224,0,0,1,51.87,19.3ZM51.9,5.576a7.848,7.848,0,0,0-8.215,8.14,7.839,7.839,0,0,0,8.183,8.206,7.84,7.84,0,0,0,8.183-8.141A7.866,7.866,0,0,0,51.9,5.576ZM33.964,20.112c0,1.162.584,1.518,1.428,1.518h.358c.811,0,1.428-.356,1.428-1.518V14.653c0-3.586,1.007-6.041,3.54-6.041a3.035,3.035,0,0,1,1.98.678,1.591,1.591,0,0,0,.974-1.648c0-1.291-.942-2.067-2.565-2.067a3.952,3.952,0,0,0-3.962,2.94c-.032-2.2-1.071-2.713-2.013-2.713-.649,0-1.169.2-1.169.445ZM17.173,7.353c0-1.163.585-1.551,1.4-1.551h.358c.844,0,1.428.356,1.428,1.551v7.494c0,2.681,1.364,4.264,3.734,4.264a4.689,4.689,0,0,0,4.28-2.734.052.052,0,0,0,.005-.024v-9c0-1.163.585-1.551,1.4-1.551h.357c.844,0,1.429.356,1.429,1.551v13.83c0,.241-.519.447-1.136.447-.974,0-1.981-.452-2.047-2.455a6.073,6.073,0,0,1-5.2,2.714c-4.124,0-6.007-2.778-6.007-6.655Z" fill="#fff" fill-rule="evenodd"/></g><path d="M11.125,16.556c-.033-.578.705-.715.783-.038.169,1.475.538,5.273.575,5.8.047.649-.591.942-1.107.4-.127-.135-3.413-3.571-3.653-3.846a.5.5,0,0,0-.685-.165c-.137.049-3.547,1.349-5.12,1.941C.816,21.06.33,20.319.875,19.518c.793-1.169,3.021-4.3,3.09-4.408.185-.3.179-.466-.151-.87-.239-.293-2.373-2.58-2.81-3.128C.647,10.664-.112,10.042.014,9.4A.83.83,0,0,1,1.03,8.762c.609.1,4.317,1.293,5.38,1.5.221.044.368-.231.73-.807C8.294,7.624,9.3,6.144,9.765,5.519c.641-.863,1.515-.612,1.6.47.108,1.4.345,4.146.479,5.4a.717.717,0,0,0,.46.681,15.033,15.033,0,0,0,3.644.908.064.064,0,0,1,.053.074,6.741,6.741,0,0,0-.084,1.71.054.054,0,0,1-.062.06A20.241,20.241,0,0,1,10.873,13.4a1.372,1.372,0,0,1-.709-.965c-.068-.349-.2-3.093-.264-4.09-.6.949-1.977,3.122-2.066,3.256a1.3,1.3,0,0,1-1.486.43c-.367-.112-2.645-.79-3.35-.991.525.673,2.209,2.51,2.42,2.77a1.548,1.548,0,0,1,.445.988,2.156,2.156,0,0,1-.495.926c-.249.374-1.959,2.437-2.418,3.121.864-.314,3.621-1.44,4.031-1.585a1.028,1.028,0,0,1,1.265.284c.681.839,2.551,2.783,3.037,3.448l-.157-4.431" fill="#f1c400" fill-rule="evenodd"/></g></g></g></svg>