<?xml version="1.0" standalone="no"?>
<!DOCTYPE svg PUBLIC "-//W3C//DTD SVG 20010904//EN"
 "http://www.w3.org/TR/2001/REC-SVG-20010904/DTD/svg10.dtd">
<svg version="1.0" xmlns="http://www.w3.org/2000/svg"
 width="512.000000pt" height="512.000000pt" viewBox="0 0 512.000000 512.000000"
 preserveAspectRatio="xMidYMid meet">
<metadata>
Created by potrace 1.11, written by Peter Selinger 2001-2013
</metadata>
<g transform="translate(0.000000,512.000000) scale(0.100000,-0.100000)"
fill="#000000" stroke="none">
<path d="M2528 4889 c-24 -14 -23 -58 3 -85 20 -22 21 -24 4 -81 -19 -66 -76
-188 -102 -218 -76 -87 -142 -71 -291 70 -69 64 -71 68 -56 90 33 51 -22 113
-72 80 -42 -27 -27 -92 23 -99 14 -2 36 -58 99 -250 44 -136 85 -251 91 -257
6 -6 136 -8 343 -7 l334 3 81 246 c86 260 91 272 105 264 16 -10 49 32 45 56
-7 33 -34 58 -58 53 -48 -8 -66 -66 -31 -95 12 -9 6 -20 -34 -58 -108 -105
-179 -151 -231 -151 -72 0 -150 119 -199 303 -9 32 -8 38 8 47 27 15 34 47 16
75 -17 26 -48 32 -78 14z"/>
<path d="M2307 4748 c-22 -12 -22 -57 -1 -65 19 -7 15 -67 -9 -146 -14 -44
-14 -48 3 -57 31 -17 66 -11 94 15 14 13 26 29 26 34 0 5 -18 39 -41 75 -38
61 -40 67 -25 87 25 36 -10 78 -47 57z"/>
<path d="M2765 4731 c-3 -10 0 -30 6 -44 10 -21 7 -32 -23 -78 -19 -30 -37
-59 -41 -66 -4 -6 5 -25 19 -42 28 -33 67 -41 97 -18 15 11 15 17 2 67 -27 99
-27 111 -5 132 21 20 23 27 14 52 -9 23 -61 21 -69 -3z"/>
<path d="M1227 4598 c-52 -68 -70 -124 -64 -202 4 -39 17 -97 30 -130 l24 -58
-57 -57 c-32 -31 -74 -76 -95 -101 -21 -25 -35 -36 -32 -25 28 91 27 135 -4
204 -20 46 -79 130 -91 131 -3 0 -19 -26 -33 -57 -49 -102 -37 -209 35 -325
l29 -48 -48 -72 c-27 -40 -60 -94 -73 -120 l-25 -47 1 77 c1 62 -4 85 -22 120
-25 47 -112 142 -130 142 -19 0 -45 -107 -40 -164 6 -63 47 -149 103 -212 l42
-48 -20 -46 c-11 -25 -35 -83 -53 -130 -32 -82 -33 -83 -34 -45 -2 51 -4 62
-23 106 -27 64 -172 188 -194 165 -4 -4 -7 -44 -7 -89 0 -65 5 -92 23 -130 25
-51 128 -162 160 -172 16 -5 18 -11 11 -29 -4 -13 -11 -36 -14 -52 -3 -16 -13
-67 -22 -114 l-17 -85 -12 45 c-17 65 -39 103 -81 140 -37 32 -147 90 -171 90
-19 0 -8 -121 16 -175 25 -56 105 -134 177 -172 l54 -28 -4 -118 c-2 -65 -6
-120 -8 -123 -3 -2 -13 14 -23 37 -35 76 -132 137 -247 154 l-47 7 15 -62 c28
-120 107 -201 248 -251 l64 -23 12 -90 c6 -50 15 -106 20 -125 10 -37 8 -36
-34 22 -49 67 -132 103 -254 111 -74 5 -75 1 -33 -82 49 -96 122 -150 241
-178 33 -7 64 -13 68 -13 35 6 42 -4 72 -103 18 -55 35 -108 38 -117 3 -9 -8
-2 -25 16 -60 61 -106 77 -225 78 -61 0 -111 -4 -117 -10 -14 -14 45 -102 96
-144 52 -43 156 -74 254 -74 75 -1 79 -2 88 -26 5 -14 31 -64 56 -110 l46 -83
-33 26 c-55 41 -107 59 -175 57 -63 -1 -193 -35 -193 -50 0 -13 60 -75 100
-103 59 -43 122 -58 218 -54 48 3 100 9 117 16 27 10 32 9 50 -13 11 -13 48
-58 82 -100 l63 -76 -53 24 c-29 12 -70 25 -90 28 -51 7 -144 -16 -218 -53
-52 -27 -59 -33 -48 -46 24 -29 100 -75 152 -93 63 -21 164 -13 254 20 32 11
65 23 73 25 8 2 39 -18 70 -46 30 -28 70 -63 88 -77 18 -14 31 -27 29 -29 -1
-2 -23 3 -47 10 -25 7 -67 12 -94 10 -57 -5 -173 -58 -226 -105 l-35 -31 23
-18 c39 -32 133 -61 197 -62 45 0 81 7 142 31 46 18 85 37 88 42 4 5 19 16 35
24 29 15 31 14 122 -46 51 -33 94 -62 95 -63 2 -1 -16 0 -40 4 -51 7 -123 -10
-180 -43 -48 -28 -147 -125 -147 -144 0 -20 108 -47 182 -47 57 0 79 6 140 37
40 20 96 57 125 82 l51 45 87 -35 c48 -19 94 -35 101 -35 8 0 14 -4 14 -8 0
-5 -6 -9 -12 -9 -119 -2 -210 -64 -295 -202 l-32 -51 32 -8 c18 -5 67 -8 110
-7 61 2 90 9 135 31 55 27 171 131 203 183 14 23 16 23 74 10 33 -7 65 -14 72
-15 7 -1 43 -12 80 -24 37 -12 74 -24 82 -26 8 -2 -24 -24 -71 -48 -111 -56
-211 -122 -273 -178 l-50 -46 34 -31 c18 -17 35 -31 38 -31 4 0 101 79 131
108 28 26 149 101 229 140 l81 41 99 -50 c112 -58 206 -122 279 -191 28 -26
55 -48 59 -48 5 0 24 14 42 32 l33 31 -43 39 c-59 54 -166 125 -272 180 l-90
47 30 11 c38 15 252 70 270 70 8 0 17 -9 20 -20 12 -38 138 -154 200 -184 53
-26 71 -29 150 -30 50 0 98 5 108 10 16 9 14 15 -21 70 -75 114 -152 172 -238
181 -61 7 -70 18 -21 28 17 4 37 10 42 14 6 4 35 17 66 29 l57 23 38 -36 c93
-86 220 -140 309 -131 61 7 155 34 155 45 0 5 -24 34 -54 64 -92 94 -168 131
-266 128 l-55 -1 42 24 c23 13 67 41 97 61 l56 37 30 -22 c42 -30 148 -77 195
-86 82 -16 170 0 249 47 35 21 36 22 20 40 -56 62 -206 129 -274 124 -34 -3
-47 -6 -100 -21 -17 -5 -2 12 45 53 39 33 79 70 89 82 23 25 37 26 76 6 48
-25 141 -45 208 -46 49 -1 75 5 125 29 34 17 75 42 92 57 29 26 30 27 10 42
-58 43 -187 83 -249 78 -20 -2 -62 -15 -92 -29 l-55 -25 26 32 c15 18 49 62
77 98 49 65 52 67 82 57 17 -5 74 -11 126 -13 125 -5 177 14 263 96 l62 60
-50 20 c-27 11 -84 22 -126 26 -88 7 -145 -8 -206 -54 l-37 -28 20 30 c12 17
40 67 64 112 l43 82 46 -2 c54 -3 123 6 194 27 57 17 118 68 163 136 37 56 26
64 -88 66 -110 2 -160 -13 -221 -66 l-43 -38 27 78 c14 43 30 95 33 114 6 31
11 36 34 37 101 3 207 44 268 106 35 35 97 149 89 163 -6 9 -99 4 -159 -10
-79 -17 -130 -52 -179 -120 -15 -21 -17 -22 -13 -5 5 23 32 196 35 228 1 4 7
7 14 5 19 -4 107 32 164 69 65 42 96 81 122 160 31 91 29 96 -21 88 -131 -20
-212 -74 -260 -175 l-16 -35 -1 90 c-1 50 -3 108 -6 130 -5 40 -5 40 47 65 78
37 163 121 186 183 21 58 29 167 12 167 -19 0 -105 -43 -152 -77 -46 -33 -98
-115 -98 -155 0 -23 -20 -24 -21 0 -1 27 -8 61 -29 146 l-20 79 23 15 c43 29
133 127 152 167 28 56 32 225 6 225 -14 0 -106 -65 -134 -95 -41 -44 -66 -104
-68 -165 -3 -62 5 -73 -69 107 l-42 103 46 50 c54 61 97 147 100 204 4 53 -22
166 -37 166 -17 0 -82 -63 -116 -113 -33 -48 -44 -90 -43 -162 l1 -50 -17 29
c-9 16 -41 65 -69 109 -29 44 -53 84 -53 88 0 5 14 30 30 56 34 54 62 138 62
188 0 45 -28 138 -50 165 l-18 23 -31 -39 c-59 -76 -78 -123 -77 -199 0 -39 6
-81 14 -95 7 -14 -29 20 -81 74 -52 55 -93 107 -92 115 1 9 11 43 24 76 40
112 21 232 -51 314 -25 29 -27 27 -67 -59 -39 -82 -37 -165 5 -245 17 -33 41
-75 53 -92 l21 -33 -69 32 c-89 42 -153 43 -238 4 -33 -15 -70 -37 -82 -48
l-23 -21 33 -22 c54 -37 126 -56 187 -49 60 7 139 35 181 64 l27 20 29 -28
c38 -34 148 -165 162 -191 8 -15 -1 -12 -40 14 -89 60 -161 67 -271 25 -85
-32 -86 -34 -47 -69 19 -18 58 -43 87 -58 48 -23 61 -25 135 -20 45 2 105 14
133 24 l51 20 28 -46 c16 -25 50 -85 76 -133 l47 -88 -47 41 c-70 63 -112 78
-206 74 -75 -3 -135 -19 -135 -35 0 -17 86 -103 120 -120 60 -31 165 -41 255
-26 l40 7 19 -48 c26 -69 76 -213 76 -221 0 -4 -11 9 -24 28 -56 82 -114 112
-228 118 -122 6 -126 4 -93 -57 56 -102 146 -157 277 -167 40 -3 78 -7 83 -9
9 -2 19 -38 40 -155 3 -14 7 -45 10 -70 l5 -45 -16 30 c-50 90 -127 145 -224
160 -25 3 -57 9 -72 11 -33 5 -35 -4 -13 -67 23 -65 61 -115 114 -149 55 -35
151 -70 193 -70 26 0 28 -3 29 -37 5 -121 3 -236 -3 -240 -5 -2 -8 3 -8 12 0
9 -12 41 -26 70 -35 75 -97 123 -203 160 -71 24 -74 22 -67 -36 10 -80 43
-145 99 -193 45 -40 162 -106 187 -106 14 0 13 -24 -6 -121 -9 -46 -18 -95
-21 -109 -6 -34 -13 -38 -14 -9 -2 73 -28 129 -84 184 -50 49 -160 114 -172
102 -11 -11 -7 -111 7 -167 11 -47 23 -64 89 -130 42 -42 91 -82 109 -89 39
-16 39 -14 -16 -164 l-37 -101 -5 75 c-6 86 -25 130 -83 191 -41 44 -108 98
-120 98 -12 0 -27 -77 -27 -141 0 -86 40 -166 126 -252 l62 -62 -31 -55 c-16
-30 -45 -77 -64 -105 -33 -50 -33 -50 -26 -15 15 67 7 133 -22 192 -35 72
-119 167 -134 153 -18 -18 -47 -118 -50 -171 -4 -79 47 -199 115 -274 l24 -26
-70 -81 c-81 -95 -94 -106 -75 -60 39 94 11 224 -72 335 l-25 33 -19 -25 c-11
-14 -32 -51 -46 -83 -44 -96 -34 -202 33 -337 29 -58 31 -54 -83 -147 l-72
-59 30 57 c47 93 43 176 -16 321 -9 23 -21 42 -25 42 -15 0 -85 -86 -110 -136
-22 -43 -25 -61 -23 -139 1 -49 8 -112 16 -140 8 -27 16 -56 18 -64 3 -10 -29
-35 -90 -73 -52 -32 -97 -55 -100 -53 -2 3 7 18 22 33 62 65 84 171 61 292
-19 98 -22 104 -48 87 -81 -54 -138 -130 -161 -216 -13 -50 -14 -198 -1 -237
6 -19 -2 -24 -76 -52 -46 -17 -96 -34 -113 -38 l-30 -6 25 18 c80 58 121 142
125 262 2 48 1 99 -2 114 l-5 27 -50 -25 c-62 -32 -134 -97 -158 -144 -26 -51
-48 -135 -56 -210 -3 -36 -8 -67 -9 -68 -3 -4 -68 -20 -115 -28 -14 -3 -70
-20 -124 -38 l-99 -33 -84 28 c-90 31 -182 56 -225 61 -15 2 -29 6 -32 8 -2 3
-6 34 -7 70 -4 111 -53 236 -111 285 -45 38 -123 85 -140 85 -14 0 -18 -9 -20
-37 -7 -174 14 -246 93 -325 66 -64 70 -64 -88 -6 l-81 30 9 31 c11 37 13 143
4 202 -11 69 -52 140 -117 200 -33 31 -64 53 -69 48 -16 -16 -39 -129 -39
-193 0 -75 27 -143 80 -204 l34 -38 -60 32 c-92 51 -154 93 -154 108 0 7 4 21
10 31 23 44 38 173 27 235 -5 28 -19 70 -32 95 -24 46 -85 121 -99 121 -4 0
-17 -24 -30 -52 -54 -123 -58 -231 -13 -313 14 -25 23 -45 20 -45 -6 0 -86 64
-135 109 l-38 34 19 32 c32 56 62 148 68 211 6 72 -11 135 -58 209 l-30 47
-25 -33 c-81 -108 -111 -225 -80 -315 9 -26 15 -49 13 -50 -3 -3 -92 95 -130
143 -18 22 -18 24 27 86 85 120 109 232 72 342 -28 83 -30 85 -72 45 -97 -92
-142 -208 -120 -310 l8 -35 -25 29 c-13 16 -41 61 -61 100 l-37 71 66 68 c90
91 120 157 118 257 0 41 -6 88 -12 103 l-11 29 -32 -20 c-52 -34 -126 -112
-149 -159 -15 -31 -22 -65 -23 -114 0 -38 -2 -69 -3 -69 -4 0 -74 189 -79 216
-5 29 -2 33 42 59 65 38 142 119 167 174 23 52 34 201 16 201 -20 0 -124 -60
-160 -93 -20 -17 -45 -48 -56 -67 -24 -42 -46 -126 -37 -143 5 -8 4 -9 -4 -2
-11 10 -36 119 -47 207 -6 46 -6 47 22 54 31 7 125 56 161 85 62 48 105 132
116 227 3 31 2 33 -25 28 -90 -14 -189 -70 -226 -129 -14 -22 -33 -63 -43 -91
l-19 -51 -1 55 c-3 79 0 222 5 231 3 3 26 9 53 13 68 9 181 66 221 111 34 39
67 105 73 146 4 28 -8 30 -100 12 -110 -22 -165 -59 -213 -144 l-30 -54 6 45
c9 68 15 102 22 135 4 17 7 32 8 35 16 72 10 67 88 73 40 3 82 8 94 11 45 10
109 44 140 74 39 38 87 118 78 132 -3 5 -41 10 -83 10 -111 0 -162 -21 -228
-94 -45 -50 -52 -54 -45 -30 17 53 48 139 71 192 l23 53 51 -7 c105 -15 203
-1 262 39 17 12 48 42 69 67 l37 45 -33 14 c-21 9 -68 15 -119 15 -96 1 -129
-11 -200 -71 l-44 -38 20 35 c12 19 38 67 59 105 21 39 41 72 45 75 4 3 12 15
19 28 11 20 14 21 39 8 49 -25 133 -39 203 -34 54 4 78 12 117 37 27 17 58 41
68 52 18 20 18 21 -1 32 -114 67 -242 68 -330 3 -16 -12 -37 -26 -44 -31 -21
-12 74 110 137 176 l53 57 52 -29 c134 -72 268 -70 362 5 20 16 20 16 -5 35
-14 11 -43 29 -65 40 -100 49 -157 50 -254 6 -30 -14 -55 -24 -57 -22 -2 2 8
20 22 41 14 21 37 63 51 93 21 46 25 65 20 117 -5 59 -30 131 -59 170 -14 18
-16 17 -41 -16z"/>
<path d="M1990 3972 c-19 -9 -43 -30 -54 -45 -21 -28 -21 -33 -23 -1198 l-3
-1169 22 -34 c42 -64 12 -61 620 -66 306 -3 555 -3 553 -1 -3 2 10 13 28 25
64 43 67 63 68 386 0 159 0 249 -1 265 -1 11 -1 26 -1 33 2 24 2 39 2 152 0
63 -1 124 -1 135 -1 11 -1 26 -1 33 2 24 2 39 2 152 0 63 -1 124 -1 135 -1 11
-1 26 -1 33 2 24 2 39 2 152 0 63 -1 124 -1 135 -1 11 -1 27 -1 35 1 28 0 174
-2 243 -1 37 2 67 6 67 5 0 6 4 3 8 -3 5 -5 38 -6 73 0 79 0 106 -3 258 -2
103 -5 123 -23 148 -46 63 -33 62 -619 62 -481 0 -535 -2 -565 -17z"/>
</g>
</svg>
